<svg xmlns="http://www.w3.org/2000/svg" viewBox="0 0 274.96 283.46"><defs><style>.cls-1,.cls-5{fill:#f1f1f1;}.cls-2,.cls-4{fill:none;}.cls-2{stroke:#2b2b2b;stroke-width:12.04px;}.cls-2,.cls-4,.cls-5{stroke-miterlimit:10;}.cls-3{fill:#2b2b2b;}.cls-4,.cls-5{stroke:#2cceac;stroke-width:6.48px;}</style></defs><title>Website Icons 2018 V2</title><g id="Layer_1" data-name="Layer 1"><rect class="cls-1" x="49.32" y="76.37" width="175.83" height="149.76" rx="8.28" ry="8.28"/><rect class="cls-2" x="49.32" y="76.37" width="175.83" height="149.76" rx="8.28" ry="8.28"/><rect class="cls-3" x="73.97" y="108.1" width="126.99" height="99.71"/><path class="cls-1" d="M87.32,92.56a9.93,9.93,0,0,1-9.92-9.92v-20a9.92,9.92,0,0,1,19.84,0v20A9.93,9.93,0,0,1,87.32,92.56Z"/><path class="cls-3" d="M87.32,57A5.67,5.67,0,0,1,93,62.63v20a5.67,5.67,0,1,1-11.34,0v-20A5.67,5.67,0,0,1,87.32,57m0-8.5A14.19,14.19,0,0,0,73.15,62.63v20a14.17,14.17,0,0,0,28.35,0v-20A14.19,14.19,0,0,0,87.32,48.46Z"/><path class="cls-1" d="M187.37,92.56a9.93,9.93,0,0,1-9.92-9.92v-20a9.92,9.92,0,0,1,19.84,0v20A9.93,9.93,0,0,1,187.37,92.56Z"/><path class="cls-3" d="M187.37,57A5.67,5.67,0,0,1,193,62.63v20a5.67,5.67,0,0,1-11.34,0v-20A5.67,5.67,0,0,1,187.37,57m0-8.5A14.19,14.19,0,0,0,173.2,62.63v20a14.17,14.17,0,1,0,28.35,0v-20a14.19,14.19,0,0,0-14.17-14.17Z"/><rect class="cls-1" x="81.76" y="119.81" width="21.33" height="21.33"/><rect class="cls-1" x="112.18" y="119.81" width="21.33" height="21.33"/><rect class="cls-1" x="142.61" y="119.81" width="21.33" height="21.33"/><rect class="cls-1" x="173.04" y="119.81" width="21.33" height="21.33"/><rect class="cls-1" x="81.76" y="150.12" width="21.33" height="21.33"/><rect class="cls-1" x="112.18" y="150.12" width="21.33" height="21.33"/><rect class="cls-1" x="173.04" y="150.12" width="21.33" height="21.33"/><rect class="cls-1" x="142.61" y="150.12" width="21.33" height="21.33"/><rect class="cls-1" x="142.61" y="178.79" width="21.33" height="21.33"/><rect class="cls-1" x="81.76" y="178.79" width="21.33" height="21.33"/><rect class="cls-1" x="112.18" y="178.79" width="21.33" height="21.33"/><rect class="cls-1" x="173.04" y="178.79" width="21.33" height="21.33"/><polyline class="cls-4" points="84.46 127.56 90.76 133.92 105.92 118.86"/><polyline class="cls-4" points="115.54 127.56 121.83 133.92 137 118.86"/><polyline class="cls-4" points="146 127.56 152.29 133.92 167.45 118.86"/><polyline class="cls-4" points="176.07 127.56 182.37 133.92 197.53 118.86"/><polyline class="cls-4" points="84.58 158.13 90.88 164.49 106.04 149.43"/><polyline class="cls-5" points="115.65 158.13 121.95 164.49 137.11 149.43"/><polyline class="cls-4" points="146.11 158.13 152.41 164.49 167.57 149.43"/><polyline class="cls-4" points="176.19 158.13 182.48 164.49 197.64 149.43"/><polyline class="cls-4" points="84.58 186.63 90.88 192.99 106.04 177.93"/><polyline class="cls-4" points="115.65 186.63 121.95 192.99 137.11 177.93"/><polyline class="cls-4" points="146.11 186.63 152.41 192.99 167.57 177.93"/><polyline class="cls-4" points="176.19 186.63 182.48 192.99 197.64 177.93"/></g></svg>