<svg xmlns="http://www.w3.org/2000/svg" viewBox="0 0 274.96 283.46"><defs><style>.cls-1{fill:#2b2b2b;}.cls-2{fill:#2cceac;}.cls-3{fill:none;stroke:#f1f1f1;stroke-miterlimit:10;stroke-width:9.98px;}.cls-4{fill:#f1f1f1;}</style></defs><title>Website Icons 2018 V2</title><g id="Layer_1" data-name="Layer 1"><rect class="cls-1" x="45.24" y="72" width="193.74" height="138.7" rx="7.29" ry="7.29"/><rect class="cls-2" x="57.85" y="83.95" width="169.38" height="108.88"/><path class="cls-1" d="M173.22,215.83H32.32v9a5.75,5.75,0,0,0,5.75,5.75H247.35a5.75,5.75,0,0,0,5.75-5.75v-9Z"/><line class="cls-3" x1="43.31" y1="210.07" x2="240.93" y2="210.07"/><path class="cls-4" d="M163.35,160.15c-2.12,2.28-5.78,4-11.31,4.12a18.33,18.33,0,0,1-8.29-1.86,14.93,14.93,0,0,0-6.2-1.49c-2.8,0-6.07,1.47-9.32,3.29l-3.32-6.51c5.72-2.75,9.42-6.74,9.34-11.14a10.29,10.29,0,0,0-1.12-4.47l-10.5.18-.1-5.61,6.65-.12c-2.38-3-4.75-6.17-4.84-10.82-.17-9.61,8.93-16.43,18.55-16.59,8.17-.14,14.4,3,17.71,9.07l-7.38,4.54a9.83,9.83,0,0,0-9.16-5.93c-5.29.09-9.64,3.53-9.54,8.9.07,3.93,2,6.46,3.92,9l1.23,1.66,11.78-.2.1,5.61-9.29.16a10.94,10.94,0,0,1,.28,2.32,11.5,11.5,0,0,1-5.44,9.71,12.7,12.7,0,0,1,10,.71,11.29,11.29,0,0,0,5.15,1.27,9.38,9.38,0,0,0,7.16-3.17Z"/><polygon class="cls-1" points="227.29 169.36 216.59 182.76 197.44 123.62 254.19 150.2 240.33 158.03 256.55 175.16 243.34 187.47 227.29 169.36"/><path class="cls-4" d="M200.76,127.38l49.07,23-12.71,7.18,16.59,17.53-10.24,9.53-16.27-18.36-9.86,12.36-16.59-51.22m-6.64-7.53,2.84,8.76,16.59,51.22,2.29,7.08,4.64-5.82,6.89-8.64,13.11,14.8,2.72,3.07,3-2.79L256.43,178l3-2.75-2.77-2.93-13.07-13.82,8.25-4.66,6.75-3.81-7-3.29-49.07-23-8.34-3.91Z"/></g></svg>