<svg xmlns="http://www.w3.org/2000/svg" viewBox="0 0 274.96 283.46"><defs><style>.cls-1{fill:#2cceac;}.cls-2,.cls-5{fill:none;stroke-miterlimit:10;}.cls-2{stroke:#2cceac;stroke-width:5.13px;}.cls-3{fill:#2b2b2b;}.cls-4{fill:#fff;}.cls-5{stroke:#fff;stroke-width:6.1px;}</style></defs><title>Website Icons 2018 V2</title><g id="Layer_1" data-name="Layer 1"><rect class="cls-1" x="80.99" y="54.03" width="141.38" height="190.14" transform="translate(-23.32 28.22) rotate(-9.87)"/><polyline class="cls-2" points="85.02 130.16 94.74 134.03 105.48 107.99"/><polyline class="cls-2" points="104.43 183.39 114.15 187.26 124.89 161.22"/><path class="cls-3" d="M83.55,69.35,81.07,54.69a4.46,4.46,0,0,1,3.65-5.13l16.14-2.74-.45-2.66c-1.17-6.91,5.17-13.76,14.14-15.28s17.22,2.86,18.39,9.77l.45,2.66,15.74-2.66h0a4.45,4.45,0,0,1,5.13,3.65l2.48,14.65Z"/><path class="cls-4" d="M118.16,31.94a18.36,18.36,0,0,0-3,.26c-7.14,1.21-12.25,6.33-11.39,11.41l1,6-19.46,3.3a1.09,1.09,0,0,0-.89,1.26L86.3,65.47,152.86,54.2l-1.92-11.34a1.09,1.09,0,0,0-1.26-.89h0l-19,3.23-1-6C128.89,34.87,124,31.94,118.16,31.94Z"/><path class="cls-3" d="M116.65,48.32a5.73,5.73,0,1,1,1-.08A5.81,5.81,0,0,1,116.65,48.32Z"/><path class="cls-4" d="M116.67,40.23a2.47,2.47,0,0,0-.4,0,2.35,2.35,0,1,0,.4,0Z"/><polyline class="cls-2" points="95.13 159.32 104.85 163.19 115.59 137.15"/><polyline class="cls-5" points="95.18 113.84 106 120.04 123.04 91.14"/><polyline class="cls-5" points="102.58 147.28 113.39 153.48 130.43 124.58"/><polyline class="cls-5" points="109.11 179.87 119.92 186.07 136.96 157.17"/><path class="cls-3" d="M224.27,210.09,195.57,41a13.81,13.81,0,0,0-15.9-11.29l-23.94,4.06.54.35a10.73,10.73,0,0,1,4.4,7l.79,4.68,20.35-3.45a.89.89,0,0,1,.26,0,1,1,0,0,1,.45.18.94.94,0,0,1,.39.61l28.7,169.12h0a1,1,0,0,1-.78,1.11l-126,21.38a1,1,0,0,1-1.1-.79L55,64.82a1,1,0,0,1,.78-1.11l19.94-3.38L75,55.62a10.77,10.77,0,0,1,2.24-8.55l-23.53,4A13.81,13.81,0,0,0,42.38,67l28.7,169.11A13.77,13.77,0,0,0,87,247.37L213,226a13.81,13.81,0,0,0,11.29-15.9Z"/></g></svg>