<svg id="Layer_1" data-name="Layer 1" xmlns="http://www.w3.org/2000/svg" viewBox="0 0 3507.83 1696.91">
  <defs>
    <style>.cls-1{fill:#fff;}.cls-2{fill:#2cceac;}
  </style>
  </defs>
  <path class="cls-2" d="M1184.67,631.73h183.08c95.93,0,167.48,59.32,128,179.42-24.37,71.76-68.31,121.56-127.48,145.73l32.11,187.47H1271.5l-26.21-167h-50.53l-55.8,167H1013Zm101,232.87c35.89,0,69.74-17.57,83.44-57.85,11.06-33.69-3-57.85-38.87-57.85h-58.58L1233,864.6Z" transform="translate(7.91 4.77)"/>
  <polygon class="cls-2" points="1579.34 1149.13 1453.38 1149.13 1625.06 636.5 1751.02 636.5 1579.34 1149.13"/>
  <path class="cls-2" d="M2113.51,894.63c-47.5,140.61-128.26,249.72-304.74,249.72H1644l171.67-512.63h164.77c145.72,0,182.44,115.71,133.06,262.91M1901.42,751.82l-91.24,272.42h39.54c55.65,0,104.2-34.41,138.38-136.94,32.9-95.2,16.57-135.48-42.74-135.48Z" transform="translate(7.91 4.77)"/>
  <polygon class="cls-2" points="2271.04 636.5 2563.84 636.5 2529.05 749.28 2359.53 749.28 2330.26 836.42 2499.76 836.42 2464.36 946.27 2293.32 946.27 2263.77 1034.88 2435.07 1034.88 2398.45 1149.13 2099.37 1149.13 2271.04 636.5"/>
  <path class="cls-2" d="M3088.4,968.4c0,108.76-55.42,175.95-155.17,175.95s-155.87-67.19-155.87-175.95,56.11-176,155.87-176S3088.4,859,3088.4,968.4m-196.74,0c0,53.34,11.08,78.28,41.57,78.28s41.56-24.94,41.56-78.28-11.08-79-41.56-79-41.57,25.63-41.57,79" transform="translate(7.91 4.77)"/>
  <path class="cls-2" d="M2750.35,941.5V831.65h-65.82V724.92l-90.79-.32-69.95,216.9h47.14v89.24c0,92.14,65.81,113.61,112.22,113.61,29.79,0,48.49-3.46,67.2-11.77v-92.83a79.61,79.61,0,0,1-33.26,6.93c-22.85,0-32.56-11.08-32.56-36.71V941.5Z" transform="translate(7.91 4.77)"/>
  <path class="cls-2" d="M905.3,548.05,828,519.94c-21.74-8.68-28.51-6.86-35.24-6.47L713.3,529.31a80.72,80.72,0,0,0-107.87,0l-79.32-15.81c-6.73-.39-13.5-2.21-35.25,6.47l-77.28,28.11A19.55,19.55,0,1,0,427,584.8s78.27-28.21,84.63-30.77a25.41,25.41,0,0,1,12.66-1.41l6.85,1.39V770.4h6.83V1009h52.86v142.27a60.1,60.1,0,0,0,59.92,59.92h17.48a60.1,60.1,0,0,0,59.92-59.92V1009.05h52.73V770.4h6.83V554l7-1.42A25.41,25.41,0,0,1,807.3,554c6.36,2.56,84.63,30.77,84.63,30.77a19.55,19.55,0,1,0,13.37-36.75M608.89,570.73h0c0-.06,0-.11,0-.16a49.29,49.29,0,1,1-.06.15m-26.11,45.35a81,81,0,0,0,153.2-.14v83.95a15.62,15.62,0,0,0-14.24-4.48l-62.45,12.28c-28.62-5.76-61.47-12.37-62.78-12.59a15.61,15.61,0,0,0-13.73,4.51ZM741.45,965.92H728.1V823.66a60.1,60.1,0,0,0-59.92-59.92H650.7a60.1,60.1,0,0,0-59.92,59.92V965.91H577.31V770.4h5.47v-49a15.48,15.48,0,0,0,8.43,4.5c2.52.48,68,13.66,68,13.66l68.56-13.48a15.58,15.58,0,0,0,8.2-4.47V770.4h5.47Z" transform="translate(7.91 4.77)"/>
  <path class="cls-2" d="M1187.57,631.36h183.08c95.93,0,167.49,59.32,128,179.42-24.37,71.77-68.3,121.57-127.48,145.73L1403.28,1144H1274.4l-26.21-167h-50.53l-55.8,167h-126Zm101,232.88c35.88,0,69.73-17.57,83.43-57.85,11.06-33.69-3-57.85-38.87-57.85h-58.58l-38.71,115.7Z" transform="translate(7.91 4.77)"/>
  <polygon class="cls-2" points="1582.24 1148.77 1456.28 1148.77 1627.96 636.14 1753.92 636.14 1582.24 1148.77"/>
  <path class="cls-2" d="M2116.41,894.27c-47.5,140.61-128.26,249.72-304.74,249.72H1646.91l171.67-512.63h164.77c145.73,0,182.44,115.71,133.06,262.91M1904.32,751.46l-91.24,272.42h39.54c55.66,0,104.2-34.41,138.39-136.94,32.89-95.2,16.56-135.48-42.75-135.48Z" transform="translate(7.91 4.77)"/>
  <polygon class="cls-2" points="2273.94 636.14 2566.74 636.14 2531.96 748.92 2362.44 748.92 2333.16 836.06 2502.66 836.06 2467.27 945.91 2296.22 945.91 2266.68 1034.52 2437.97 1034.52 2401.36 1148.77 2102.28 1148.77 2273.94 636.14"/><path class="cls-2" d="M3091.3,968c0,108.76-55.42,176-155.17,176s-155.87-67.19-155.87-176,56.12-176,155.87-176,155.17,66.5,155.17,176m-196.73,0c0,53.34,11.08,78.28,41.56,78.28s41.56-24.94,41.56-78.28-11.08-79-41.56-79-41.56,25.63-41.56,79" transform="translate(7.91 4.77)"/>
  <path class="cls-2" d="M2753.25,941.13V831.29h-65.81V724.56l-90.79-.32-70,216.89h47.14v89.25c0,92.14,65.81,113.61,112.22,113.61,29.79,0,48.5-3.46,67.2-11.77v-92.83a79.58,79.58,0,0,1-33.26,6.93c-22.85,0-32.55-11.08-32.55-36.72V941.13Z" transform="translate(7.91 4.77)"/>
</svg>