<?xml version="1.0" encoding="iso-8859-1"?>
<!-- Generator: Adobe Illustrator 19.0.0, SVG Export Plug-In . SVG Version: 6.00 Build 0)  -->
<svg version="1.1" id="Layer_1" xmlns="http://www.w3.org/2000/svg" xmlns:xlink="http://www.w3.org/1999/xlink" x="0px" y="0px"
	 viewBox="0 0 512 512" style="enable-background:new 0 0 512 512;" xml:space="preserve">
<g>
	<g>
		<polygon points="419.335,0 92.667,0 25.418,105.226 486.583,105.226 		"/>
	</g>
</g>
<g>
	<g>
		<path d="M17.867,138.617v37.155c0,39.731,32.324,72.055,72.055,72.055c22.225,0,42.132-10.113,55.359-25.982
			c13.227,15.868,33.134,25.982,55.359,25.982s42.132-10.113,55.359-25.982c13.229,15.868,33.135,25.982,55.359,25.982
			c22.224,0,42.132-10.113,55.359-25.982c13.229,15.868,33.135,25.982,55.359,25.982c39.73,0,72.054-32.324,72.054-72.055v-37.155
			H17.867z"/>
	</g>
</g>
<g>
	<g>
		<path d="M422.08,281.218c-19.822,0-38.912-5.533-55.359-15.705c-16.449,10.172-35.538,15.705-55.359,15.705
			c-19.822,0-38.912-5.533-55.359-15.705c-16.447,10.172-35.537,15.705-55.359,15.705s-38.912-5.533-55.359-15.705
			c-16.449,10.172-35.537,15.705-55.359,15.705c-12.364,0-24.234-2.146-35.268-6.073V512h209.966V322.783h131.25V512h63.705V274.324
			C447.918,278.773,435.281,281.218,422.08,281.218z M207.403,411.826h-89.043v-89.044h89.043V411.826z"/>
	</g>
</g>
<g>
</g>
<g>
</g>
<g>
</g>
<g>
</g>
<g>
</g>
<g>
</g>
<g>
</g>
<g>
</g>
<g>
</g>
<g>
</g>
<g>
</g>
<g>
</g>
<g>
</g>
<g>
</g>
<g>
</g>
</svg>
