<svg xmlns="http://www.w3.org/2000/svg" width="34" height="28" viewBox="0 0 34 28">
  <g fill="none" fill-rule="evenodd" stroke="#111" transform="translate(1 1)">
    <ellipse cx="27.826" cy="21.895" rx="4.674" ry="4.605"/>
    <path d="M8.34782609,26.5 C5.76833423,26.5 3.67391304,24.4400265 3.67391304,21.8947368 L3.67391304,21.3947368 L4.17391304,21.3947368 C8.84489033,21.3947368 8.84489033,21.3947368 12.5217391,21.3947368 L13.0217391,21.3947368 L13.0217391,21.8947368 C13.0217391,24.4400265 10.9273179,26.5 8.34782609,26.5 Z"/>
    <path stroke-linecap="square" d="M0,21.2105263 L21.7971014,21.2105263"/>
    <rect width="13.913" height="2.737" x="1.391" y="9.579" rx="1.368"/>
    <polyline stroke-linecap="round" stroke-linejoin="round" points="15.304 0 19.157 0 27.826 21.895"/>
    <path d="M0.00190897623,21.8947368 C-0.0646671107,18.1189596 1.61015173,14.9259772 5.0263655,12.3157895"/>
    <path d="M11.1323438,21.8947368 C11.0657677,18.1189596 12.7405865,14.9259772 16.1568003,12.3157895" transform="matrix(-1 0 0 1 27.287 0)"/>
    <path d="M15.3067852,16.4210526 C15.2217808,12.6452754 17.3601916,9.45229294 21.7220177,6.84210526" transform="rotate(180 18.513 11.632)"/>
    <rect width="5.957" height="4.474" x="18.587" y="3.237" fill="#FFF" rx="2.237"/>
  </g>
</svg>
