<svg xmlns="http://www.w3.org/2000/svg" width="31" height="31" viewBox="0 0 31 31">
  <g fill="none" fill-rule="evenodd" stroke="#111" stroke-linecap="round" stroke-linejoin="round">
    <polyline points="13.5 7.5 13.5 13.5 7.5 13.5"/>
    <path d="M18.5,19.5 L18.5,23.5 C18.5,25.157 21.186,26.5 24.5,26.5 C27.814,26.5 30.5,25.157 30.5,23.5 L30.5,19.5"/>
    <path d="M18.5,23.5 L18.5,27.5 C18.5,29.157 21.186,30.5 24.5,30.5 C27.814,30.5 30.5,29.157 30.5,27.5 L30.5,23.5"/>
    <ellipse cx="24.5" cy="19.5" rx="6" ry="3"/>
    <path d="M14.5,26.462 C14.17,26.487 13.836,26.5 13.5,26.5 C6.32,26.5 0.5,20.68 0.5,13.5 C0.5,6.32 6.32,0.5 13.5,0.5 C20.343,0.5 25.952,5.788 26.462,12.5"/>
  </g>
</svg>
