<svg id="Layer_1" data-name="Layer 1" xmlns="http://www.w3.org/2000/svg" viewBox="0 0 325.88 47.89"><defs><style>.cls-1,.cls-2{fill:#cecece;}.cls-2{fill-rule:evenodd;}</style></defs><title>delivery-logos</title><path class="cls-1" d="M349.4,35.12l-.09.12a3.53,3.53,0,0,1-2.86,1.37,4.1,4.1,0,0,1-1.76-.34,3,3,0,0,1-1.54-1.69,4.21,4.21,0,0,1-.31-1.56V27.86a2.28,2.28,0,0,1,0-.26.66.66,0,0,1,.57-.56,2.43,2.43,0,0,1,.66,0,.66.66,0,0,1,.61.63,2.59,2.59,0,0,1,0,.48V32.4a3.63,3.63,0,0,0,.17,1.18,2,2,0,0,0,1.84,1.33,2.7,2.7,0,0,0,1.78-.51,1.81,1.81,0,0,0,.88-1.74V28.05a1.53,1.53,0,0,1,.07-.47.61.61,0,0,1,.51-.48,1.84,1.84,0,0,1,.74,0,.65.65,0,0,1,.56.5,2.09,2.09,0,0,1,0,.43V36.1a.22.22,0,0,1-.13.23,1.25,1.25,0,0,1-1.45-.25,1.54,1.54,0,0,1-.29-.74,1.55,1.55,0,0,0,0-.21Zm-24.71,0-.21.26a3.45,3.45,0,0,1-2.21,1.23,4.2,4.2,0,0,1-1.69-.08,3,3,0,0,1-2.11-1.82,4.2,4.2,0,0,1-.36-1.71v-5a.48.48,0,0,1,0-.17.71.71,0,0,1,.66-.7,3,3,0,0,1,.6,0,.67.67,0,0,1,.61.62,3,3,0,0,1,0,.42v4.54a2.64,2.64,0,0,0,.34,1.29,1.85,1.85,0,0,0,1.5,1,2.63,2.63,0,0,0,1.81-.4,2.17,2.17,0,0,0,1-1.43,2.41,2.41,0,0,0,0-.38V28.05a2.34,2.34,0,0,1,0-.38.7.7,0,0,1,.67-.65,2.62,2.62,0,0,1,.56,0,.7.7,0,0,1,.66.7V36c0,.27,0,.31-.29.39a1.83,1.83,0,0,1-.66,0,1,1,0,0,1-.77-.63,4,4,0,0,1-.14-.57.44.44,0,0,0,0-.19Zm5.66-3.33v3.8a1.74,1.74,0,0,1-.05.39.65.65,0,0,1-.62.51h-.56a.68.68,0,0,1-.66-.56,1.47,1.47,0,0,1,0-.36V28a1.61,1.61,0,0,1,.05-.44.65.65,0,0,1,.51-.51,1.75,1.75,0,0,1,.85,0,.62.62,0,0,1,.45.45,2.1,2.1,0,0,1,.05.43v3.81Zm-1-8.59a1.17,1.17,0,0,1,1.18,1.15h0v0a1.19,1.19,0,0,1-2.37.16v-.16a1.19,1.19,0,0,1,1.17-1.19h0Z" transform="translate(-36.79 -7.74)"/><path class="cls-1" d="M324.4,37.91c-.07-.13-.13-.14-.27-.08l-.56.26a6.28,6.28,0,0,1-2.69.28,4.81,4.81,0,0,1-3.3-1.75,17.2,17.2,0,0,1-1.25-1.78,19,19,0,0,0-1.18-1.69l-.08-.12.12-.17c.19-.31.4-.6.57-.92a7.71,7.71,0,0,0,.84-3.68,8.58,8.58,0,0,0-.14-1.33,7.69,7.69,0,0,0-.93-2.65,8.24,8.24,0,0,0-6.92-4.18,8.54,8.54,0,0,0-1.34.08,8.19,8.19,0,0,0-7.13,7.61,8.62,8.62,0,0,0,.06,1.76,8.06,8.06,0,0,0,1.88,4.1.62.62,0,0,0,.85.1,2.23,2.23,0,0,0,.46-.46.65.65,0,0,0,0-.79l-.22-.27a6.37,6.37,0,0,1-1.23-4.77,6.17,6.17,0,0,1,2.25-4.07,6.48,6.48,0,0,1,9.14.77c.1.11.19.23.28.35a6.36,6.36,0,0,1,1.18,4.87,6.77,6.77,0,0,1-.61,2,4,4,0,0,1-.22.4c-.09-.08-.18-.14-.25-.21a7.83,7.83,0,0,0-3.15-1.81,5.68,5.68,0,0,0-2.56-.2,3.61,3.61,0,0,0-2.07,1,3.39,3.39,0,0,0-1,3.27,3.36,3.36,0,0,0,2.25,2.56,4.81,4.81,0,0,0,2.35.2,7.87,7.87,0,0,0,4-1.92l.48-.42.26.29,1.28,1.89a9.32,9.32,0,0,0,1.81,2,5.72,5.72,0,0,0,2,1.08,7.45,7.45,0,0,0,1.41.26,6.33,6.33,0,0,0,2.25-.23,2.94,2.94,0,0,0,1-.48,1.42,1.42,0,0,0,.49-.62A.64.64,0,0,0,324.4,37.91Zm-11.92-4.44A7.6,7.6,0,0,1,310,34.75a3.83,3.83,0,0,1-1.93.11,2,2,0,0,1-1.3-.88,1.87,1.87,0,0,1,.6-2.55,2.1,2.1,0,0,1,.3-.15,3.44,3.44,0,0,1,2.08-.08,7.07,7.07,0,0,1,2.64,1.29,5.37,5.37,0,0,1,.44.37A.86.86,0,0,1,313,33a2.33,2.33,0,0,1-.52.47Zm50.19-1.91A5.29,5.29,0,0,0,362,29a4,4,0,0,0-2.48-2,4.45,4.45,0,0,0-1.5-.14,3.6,3.6,0,0,0-1.6.45,3.84,3.84,0,0,0-1.2,1.07l-.11.09a.38.38,0,0,0,0-.15,2.19,2.19,0,0,0-.23-.83,1,1,0,0,0-.56-.45,1.4,1.4,0,0,0-.86,0c-.22.08-.26.11-.26.34V39.12a1.72,1.72,0,0,0,0,.39.63.63,0,0,0,.54.53,2.81,2.81,0,0,0,.71,0,.65.65,0,0,0,.61-.59,2.09,2.09,0,0,0,0-.43V35l.12.13a3.52,3.52,0,0,0,2,1.34,3.84,3.84,0,0,0,1.47.11,4.34,4.34,0,0,0,1.45-.39,4.18,4.18,0,0,0,2.16-2.45,5.93,5.93,0,0,0,.35-2.25Zm-2.19,1.81A2.55,2.55,0,0,1,358.23,35a2.84,2.84,0,0,1-2.08-.61,2.54,2.54,0,0,1-.82-1.12,4.2,4.2,0,0,1,0-3,2.48,2.48,0,0,1,1.88-1.62,3.3,3.3,0,0,1,1.4,0A2.53,2.53,0,0,1,360.39,30a3.71,3.71,0,0,1,.4,1.88,3.53,3.53,0,0,1-.31,1.57Zm-19.26-6a.19.19,0,0,0-.14-.2,3.17,3.17,0,0,0-.44-.12,1,1,0,0,0-1.12.62,3.27,3.27,0,0,0-.17.53l0,.14h-.05l-.1-.11a3.14,3.14,0,0,0-1.19-.92,4.32,4.32,0,0,0-2.65-.31,4,4,0,0,0-3.14,2.54,5.64,5.64,0,0,0-.4,2.81,5.18,5.18,0,0,0,.6,2.11,4,4,0,0,0,2.33,2,4.12,4.12,0,0,0,2,.18,3.54,3.54,0,0,0,1.38-.47,4.08,4.08,0,0,0,1.13-1l.12-.13v4.39a.74.74,0,0,0,.68.71h.56a.67.67,0,0,0,.63-.57,1.75,1.75,0,0,0,0-.4V27.52a1,1,0,0,0,0-.17Zm-2.1,5.89a2.87,2.87,0,0,1-3.75,1.56h0a2.44,2.44,0,0,1-.61-.34,2.86,2.86,0,0,1-1-1.48,4.21,4.21,0,0,1,.09-2.67,2.55,2.55,0,0,1,2.1-1.76,2.87,2.87,0,0,1,2.33.56,2.57,2.57,0,0,1,.9,1.42,3.9,3.9,0,0,1,.16,1.22,3.73,3.73,0,0,1-.26,1.51Z" transform="translate(-36.79 -7.74)"/><path class="cls-1" d="M58.06,25.54c-.08-.37-.14-.68-.21-1-.59-2.84-1.2-5.67-1.82-8.51-.25-1.18-.51-2.37-.75-3.55-.08-.36-.06-.38.29-.45l5.22-1.13,3-.62.43-.07c1,4.4,1.87,8.85,2.88,13.18L68.72,7.74h.45l4.16.44,3.51.38.71.07c.23,0,.29.06.27.33a2.83,2.83,0,0,1-.06.62c-.16,1.55-.34,3.11-.5,4.66s-.31,3.09-.48,4.64c-.13,1.3-.28,2.6-.42,3.93s-.23,2.34-.35,3.51c-.09.91-.2,1.8-.29,2.71s-.19,1.82-.28,2.73a2.56,2.56,0,0,1-.24.9c-1,2.17-1.93,4.35-2.9,6.54l-2,4.32c-.18.38-.19.38-.58.29l-7.81-1.66-7-1.54L48,39.14c-.63-.13-.53-.09-.66-.66l-1.5-7-.58-2.76a1,1,0,0,0-.06-.39Zm10.39,5a1.52,1.52,0,0,0-1-1.43,1.36,1.36,0,0,0-1.27,0,1.66,1.66,0,0,0-.79,1.57,1,1,0,0,0,.56,1A2.36,2.36,0,0,0,67,32a1.13,1.13,0,0,0,1-.37,1.9,1.9,0,0,0,.51-1Zm-7.86.55A1.44,1.44,0,0,0,62,29.67a1.3,1.3,0,0,0-.63-1.2,1.72,1.72,0,0,0-1.53-.15,1,1,0,0,0-.85.91A3.05,3.05,0,0,0,59,30a1.14,1.14,0,0,0,1,1.08l.61.1ZM43.28,55.45H42.05c-.37,0-.38,0-.46-.35l-.09-.33c-.1.08-.18.12-.24.18a2.61,2.61,0,0,1-3.68-.26h0a2.73,2.73,0,0,1-.44-.71,3.74,3.74,0,0,1,0-3.14,2.65,2.65,0,0,1,3.36-1.42,7.17,7.17,0,0,1,.93.53V46.9a.22.22,0,0,1,.19-.24h1.2c.15,0,.21.09.21.24V53a8.14,8.14,0,0,0,.22,2.2,1.4,1.4,0,0,1,0,.29Zm-1.82-3a1.45,1.45,0,0,0-1.37-1.52h-.2A1.53,1.53,0,0,0,39.77,54h.14a1.45,1.45,0,0,0,1.55-1.32v-.22Zm7.74,1.16c.19.4.36.78.52,1.16.06.13,0,.22-.15.29a8.31,8.31,0,0,1-.87.35,4.09,4.09,0,0,1-2.76,0A2.82,2.82,0,0,1,44.14,53a3.77,3.77,0,0,1,.12-1.7,2.89,2.89,0,0,1,2.66-2.07A3,3,0,0,1,50.19,52h0v.29c0,.22,0,.45,0,.68a.21.21,0,0,1-.23.2H46.18a2.67,2.67,0,0,0-.4,0,.78.78,0,0,0,.37.51,2,2,0,0,0,1.57.35,10.37,10.37,0,0,0,1.21-.34Zm-.63-1.74c-.12-.75-.78-1.13-1.71-1a1.16,1.16,0,0,0-1.14,1Zm16,1.33a1.05,1.05,0,0,0,.54.61,2.1,2.1,0,0,0,1.39.24c.42-.09.83-.21,1.25-.34.24-.08.26-.08.37.15s.25.55.36.83.1.29-.13.41a4.69,4.69,0,0,1-2,.55,3.78,3.78,0,0,1-1.56-.24,2.75,2.75,0,0,1-1.89-2.12,3.76,3.76,0,0,1,.07-2,2.87,2.87,0,0,1,2.59-2A3.13,3.13,0,0,1,69,52.09a3.39,3.39,0,0,1,0,.78.25.25,0,0,1-.27.25H65A1.52,1.52,0,0,0,64.54,53.18Zm2.78-1.38c-.12-.71-.85-1.07-1.74-1-.6.07-1.1.53-1.08,1a17.7,17.7,0,0,0,2.82,0ZM77,49.25a3.19,3.19,0,0,1,.57,6.36,3.14,3.14,0,0,1-1.39-.2,2.94,2.94,0,0,1-2-2.56,3.38,3.38,0,0,1,.41-2.13A2.85,2.85,0,0,1,77,49.25Zm-1.27,3.19A1.43,1.43,0,0,0,77.07,54h.2a1.46,1.46,0,0,0,1.59-1.33.67.67,0,0,0,0-.2,1.58,1.58,0,0,0-3.14-.15v.16Zm11.59,0a3,3,0,0,1-.66,2.05,2.93,2.93,0,0,1-2,1.09,3,3,0,0,1-3.39-2.12,3.36,3.36,0,0,1,.49-3.05A3,3,0,0,1,84,49.25a3.32,3.32,0,0,1,1.25.13,2.93,2.93,0,0,1,2.11,2.7Zm-4.66,0A1.49,1.49,0,0,0,84.06,54h.17a1.56,1.56,0,0,0,.22-3.11h-.12a1.48,1.48,0,0,0-1.66,1.27v0a.38.38,0,0,0,0,.15Zm-26-2.95h1.29c.33,0,.34,0,.42.32l1,3.93.14.55c0-.14.08-.21.1-.29l1-4a.14.14,0,0,1,0-.09c.12-.45.12-.45.58-.46h1.21a.81.81,0,0,1-.07.42q-.69,2.57-1.42,5.27c-.09.35-.11.37-.49.37h-1.8c-.31,0-.33,0-.42-.33l-1.47-5.43v-.3Zm-3.85,1.62v4.14a.2.2,0,0,1-.17.23H51.45a.19.19,0,0,1-.21-.17h0V47.17c0-.5,0-.5.5-.5h.81c.17,0,.26.08.25.26v4.18ZM74.3,49.56l-.72,1.66-.32-.12a1.43,1.43,0,0,0-1.26.07.79.79,0,0,0-.45.75v3.37a.2.2,0,0,1-.17.23H70.24a.21.21,0,0,1-.24-.25V51.38a6.11,6.11,0,0,0-.19-1.53,3.18,3.18,0,0,1-.06-.43l.31-.05h1c.28,0,.31,0,.38.32a.72.72,0,0,0,.09.39,2.06,2.06,0,0,1,1.65-.83,1.9,1.9,0,0,1,1.14.33ZM55.77,52.44v2.64c0,.36,0,.38-.37.39h-.88c-.28,0-.3,0-.31-.32V49.62a.21.21,0,0,1,.23-.24h1.1a.21.21,0,0,1,.23.24ZM54,47.52a.92.92,0,0,1,.84-1H55a1,1,0,0,1,1,1h0a1,1,0,0,1-1,1h0a1,1,0,0,1-1-.92v0Z" transform="translate(-36.79 -7.74)"/><path class="cls-2" d="M124.92,45.23h-2.71V42.9s.3-.15.3-.7V37.35a.9.9,0,0,0-.3-.63V35c1.47-.61,2.72-1,2.72-1a2.5,2.5,0,0,1,2.24.52,2.39,2.39,0,0,1,.43,1.66v3.19a2.09,2.09,0,0,1-1.7,2.26h-1.26v.59c0,.58.3.7.3.7V45.2ZM124.61,36v4.12h.31c.44,0,.55-.64.55-.91V36.83c0-.84-.43-.89-.55-.89Zm34.48-3.5c0-3.24,2.6-3.82,4-3.82A3.74,3.74,0,0,1,167,32.45v9.1c0,3.45-2.3,4.19-3.89,4.19a4.19,4.19,0,0,1-4-3.81Zm3.31,8.81a.71.71,0,0,0,.51.85.7.7,0,0,0,.85-.51.65.65,0,0,0,0-.34V33c0-1.13-1.36-1.14-1.36,0Z" transform="translate(-36.79 -7.74)"/><path class="cls-1" d="M159.09,32.45c0-3.24,2.6-3.82,4-3.82A3.74,3.74,0,0,1,167,32.45v9.1c0,3.45-2.3,4.19-3.89,4.19a4.19,4.19,0,0,1-4-3.81V32.45m3.31,8.81a.7.7,0,1,0,1.35.34.65.65,0,0,0,0-.34V33c0-1.13-1.35-1.14-1.35,0Z" transform="translate(-36.79 -7.74)"/><path class="cls-2" d="M185.07,41.55h-2.18v2.63a2.79,2.79,0,0,0,5.19-1.07V40.93a2.28,2.28,0,0,0-1.51-2.19c-.75-.43-1.51-.24-1.51-1.4,0-.87,1.07-1.26,1.07.63h1.94V35.59c-1.6-1.52-2.5-1.34-3.26-1.2-1.17.23-1.94,1.61-1.94,3.5a3.18,3.18,0,0,0,.88,2.3,3.51,3.51,0,0,0,1.32.86c.48.17,1.07.15,1.07,1.12,0,1.52-1.07,1.3-1.07.7Zm-2-6.74.18.26.51-.52c.59-.58.33-1.31-.38-1.3a.5.5,0,0,0-.47.56.49.49,0,0,0,.27.41c.24.07.23.18.12.3l-.23.28ZM127.8,42.19l1.4-9.79,3.4-.91,1.13,10.69c0,.56.28.7.28.7h0v2.33h-3V42.9s.26-.14.26-.7v-.58h-1.12v.56c0,.57.28.7.28.7v2.35h-2.92V42.89s.28-.14.28-.7Zm2.47-2.27h1l-.48-4.67-.52,4.67Zm28-7.28c0-.79.37-1,.37-1V28.78l-4-.1v2.73s.37.19.37,1V40.3c0,1.82-1,1.82-2.39,1v3.44c1.61,1,5.7,2.28,5.7-3.17v-8.9ZM175.4,42.9s-.35-.2-.35-1v-7.3a1.24,1.24,0,0,1,.44-1.07V31l-3.73-.9v3s.3.19.3,1v2.58h-1.3V34a1.28,1.28,0,0,1,.45-1.07v-3l-3.67-.63v3.36A1.26,1.26,0,0,1,168,33.7v8.22c0,.78-.46,1-.46,1v2.38h3.6V42.9s-.38-.2-.38-1V39.24h1.29v2.68c0,.78-.38,1-.38,1v2.38h3.75V42.9Zm.63,0a.43.43,0,0,0,.37-.48h0V34.75a1.46,1.46,0,0,0-.35-1.1V31l2.93.76,1.24,6.72,0-2.35a1.45,1.45,0,0,0-.35-1.09V32.12l2.7.92v2.34a1.24,1.24,0,0,0-.44,1.07v8.81h-2.43L178.34,40v2.21c0,.79.27.7.27.7v2.37h-2.55V42.9Zm-38.39-10v5.49H138c.57,0,.7-.84.7-1.21V34c0-1.11-.57-1.17-.7-1.17ZM138,45.23h-3.5V42.9s.38-.2.38-1V34.39a1.12,1.12,0,0,0-.38-.84V31.21a16,16,0,0,1,3.5-1,3.13,3.13,0,0,1,2.9.7,2.65,2.65,0,0,1,.87,2.28v4.6c0,2.61-1.15,3.3-2.49,3.4h-1.64v.78c0,.78.38,1,.38,1v2.34Z" transform="translate(-36.79 -7.74)"/><path class="cls-1" d="M137.64,32.85v5.49H138c.57,0,.7-.84.7-1.21V34c0-1.11-.57-1.17-.7-1.17h-.38M138,45.23h-3.5V42.9s.38-.2.38-1V34.39a1.12,1.12,0,0,0-.38-.84V31.21a16,16,0,0,1,3.5-1,3.13,3.13,0,0,1,2.9.7,2.65,2.65,0,0,1,.87,2.28v4.6c0,2.61-1.15,3.3-2.49,3.4h-1.64v.78c0,.78.38,1,.38,1v2.34Z" transform="translate(-36.79 -7.74)"/><path class="cls-2" d="M141.79,41.78l1.8-12.42,4.75-.44,1.58,13c0,.78.38,1,.38,1v2.33h-4.08V42.9s.38-.2.38-1v-.78h-1.86v.78c0,.78.37,1,.37,1v2.33h-3.7V42.9s.38-.2.38-1v-.15Zm3.13-3h1.47l-.76-6.39Z" transform="translate(-36.79 -7.74)"/><path class="cls-1" d="M141.79,41.78l1.8-12.42,4.75-.44,1.58,13c0,.78.38,1,.38,1v2.33h-4.08V42.9s.38-.2.38-1v-.78h-1.86v.78c0,.78.37,1,.37,1v2.33h-3.7V42.9s.38-.2.38-1m3.13-3.12h1.47l-.76-6.39Z" transform="translate(-36.79 -7.74)"/><path class="cls-2" d="M164.63,27.28l-.41.17a7.34,7.34,0,0,1,.93.1c.78.17,1.81.47,2.8.7l-.35-2.87,1.69-1.54a35.64,35.64,0,0,0-3.71-.69l-.93,4.12Zm-3.35-4.85-.56,1.18.88.1Zm-13,1a.66.66,0,0,0,.51-.7l-.07-.5a.68.68,0,0,0-.63-.52H148l.17,1.72Z" transform="translate(-36.79 -7.74)"/><path class="cls-2" d="M187.62,32c-4.4-2.4-13.85-4.85-19.36-5.59l-.09-.7,1.76-1.77.22-.25-.38-.11a32,32,0,0,0-4.09-.87l.23-1.16c.16-.7-4.08-1.8-11-1.8s-11.25.93-11.09,1.65l.3,1.31a31.69,31.69,0,0,0-4.08.82l-.39.11.23.25,1.75,1.77-.09.7c-5.51.79-15,3.22-19.36,5.59-2.33,1.28-2.58,2.18-2.58,5.19v7.69a3,3,0,0,0,.76,2.22c.79.84,1.82.84,3,.84h63.08c1.19,0,2.21,0,3-.79a3,3,0,0,0,.77-2.22V37.14C190.21,34.13,190,33.23,187.62,32Zm-27.92-7.3h.11c.15,0,.31-.25.4-.46l1.27-2.63.7.05.87,3.35h.26v.12l-1.81-.16V24.8l.34,0-.24-1-1-.1-.25.48c-.17.34,0,.47.14.48h.15v.13l-1-.06Zm-3.22-.24,1.7-3H158a1.25,1.25,0,0,0-1.21,1h-.14l.09-1.17,2.68.12v.14l-1.72,3H158a1.29,1.29,0,0,0,1.19-1.1h.16l-.07,1.27-2.8-.11Zm-2.17-3.05a1.27,1.27,0,0,0-1.15,1.07H153l.05-1.19h2.69v.16l-1.55,3.1h.29c.45,0,.95-.35,1.12-1.17h.16v1.3h-2.8v-.19l1.52-3.07Zm-2.1-.09v.13h-.37l.18,3.11h.37v.13l-1.91.12v-.12h.37l-.17-3.12h-.37V21.4Zm-3.61.27c1.05-.1,1.27.39,1.32.85s-.08,1-1.12,1.13l-.7.07.12,1.24.45,0v.14l-2,.16V25l.38,0-.31-3.1-.36,0v-.13Zm40.45,23.27a1.87,1.87,0,0,1-.43,1.4c-.45.45-1.13.45-2.17.45H123.36c-1,0-1.73,0-2.18-.45a1.82,1.82,0,0,1-.43-1.4V37.12c0-2.8.19-3.18,2-4.2,4.2-2.3,13.21-4.63,18.65-5.45l-.14,1.06-.05.35.34-.08a21.82,21.82,0,0,1,4.13-.91s.58,0,1.16-.06,0-.61-.35-.82h.08l.7-.05c2-.15,3.5-.27,4.73-.35h5.52l5,.37.46,0,.08,0a.64.64,0,0,0,.18.06c-.36.24-.94.7-.28.76s1.17.06,1.17.06a23.59,23.59,0,0,1,4.12.91l.34.08,0-.34-.12-1c5.42.82,14.43,3.15,18.64,5.45,1.8,1,2,1.4,2,4.16Z" transform="translate(-36.79 -7.74)"/><path class="cls-2" d="M246.79,29.51a5.43,5.43,0,0,1-2.27,0c-.74-.27-.84-.7-.7-1a.71.71,0,0,1,.41-.37,1.32,1.32,0,0,1,.56,0,8.88,8.88,0,0,0,1.85-.2c.49-.1,1.06-.21,1.57-.27s1.17-.1,1.48-.11c0,0,.93-.05,1.16.52a1.19,1.19,0,0,1,0,.81,14.88,14.88,0,0,1-2.27,3.07c-.64.65-1.31,1.28-1.9,1.93l-.39.4a15.11,15.11,0,0,1,2-.31,27.14,27.14,0,0,1,4.5.28,7.22,7.22,0,0,0,3.44-.49.39.39,0,0,1,.52.11.33.33,0,0,1-.1.46h0c-1.28,1.12-3,1.24-4.58,1.4-.81.05-4.73.08-5.52.22a18.24,18.24,0,0,0-2.49.65,1.05,1.05,0,0,1-1.49-.31,1,1,0,0,1,0-.75l.09-.22a8.35,8.35,0,0,1,2-2.45l1.15-1.1,2.71-2.57a13.77,13.77,0,0,1-1.67.35Zm-6.43,25a5.45,5.45,0,0,0,2.88-.86c5.31-2.74,8.9-4.53,14.6-7,1.92-.83,3.79-1.4,5.7-2.05a.28.28,0,0,0,.19-.31.26.26,0,0,0-.29-.18h0C255.1,45,247.6,49,240.23,52.63a1,1,0,1,0,.13,1.93h0Z" transform="translate(-36.79 -7.74)"/><path class="cls-2" d="M260.27,35.22c.09-.53-.07-.81-.29-.95a.65.65,0,0,0-.85.28,32.25,32.25,0,0,0-1.63,2.79l-1.32.33a1.19,1.19,0,0,1-.53,0,.69.69,0,0,0-.81.17.57.57,0,0,0-.09.8h0a1.07,1.07,0,0,0,.16.14,3.6,3.6,0,0,0,1.86.26,12.34,12.34,0,0,0-.7,6.42c.12.32.19.45.41.44a.42.42,0,0,0,.42-.42h0c.7-2.44,1.2-4.5,2.06-6.91a18.14,18.14,0,0,0,2.09-.88,31,31,0,0,0,3.5-1.63c.15-.08.22-.23.16-.33a.28.28,0,0,0-.36-.07c-1.56.42-3.13.7-4.69,1.13a8.64,8.64,0,0,0,.62-1.58ZM241.71,29c-1.09,2-3.13,4.08-2.47,6.52a2,2,0,0,0,.75,1,.79.79,0,0,0,.7.09c.24-.13.16-.49.2-.64.55-2.39,2.61-4.74,1.77-7.23a.39.39,0,0,0-.43-.35h0c-.37,0-.39.49-.47.63ZM252.9,39.06c-.24.51-.5,1-.79,1.49a13.64,13.64,0,0,1-3.34,3A4.9,4.9,0,0,0,249,41a1.8,1.8,0,0,0-.7-1,1.08,1.08,0,0,0-.49-.21,2.92,2.92,0,0,0-1.14.1.49.49,0,0,0-.37.35c0,.27.27.31.37.37.61.36.53.7.53.7a17,17,0,0,0-.7,3.3,1.66,1.66,0,0,0,.7,1.24A1.37,1.37,0,0,0,248,46c1.83-.42,2.93-1.79,3.89-3.31a2.81,2.81,0,0,0,1.52,2.53c.28.09.46.16.63,0s.12-.27,0-.57a12.62,12.62,0,0,1,0-4.42v-.12a2.1,2.1,0,0,0-.08-1.14.59.59,0,0,0-.41-.33.79.79,0,0,0-.77.53ZM252.2,26l-.22,0a.59.59,0,0,0-.65.53h0a1,1,0,0,0,.14.66,1.53,1.53,0,0,0,.26.31,1,1,0,0,0,.53.21,5.83,5.83,0,0,0,1.56,0l2.14-.38c-1,.82-1.91,1.6-2.79,2.51a10.11,10.11,0,0,0-2.1,2.33,1.59,1.59,0,0,0-.16.83s0,.56.56.37a7.54,7.54,0,0,1,.82-.2c2.28-.44,4.76.46,6.85-1.24.29-.24.45-.42.39-.66s-.37-.2-.61-.1c-1.4.35-2.8-.07-4.2,0l.11-.12c1-1.05,1.79-1.86,2.48-2.65a8.63,8.63,0,0,0,1.09-1.4s.42-.62.17-1.08a2.21,2.21,0,0,0-2.26-.49c-2.91.62-3.91.75-3.91.75h-.22Z" transform="translate(-36.79 -7.74)"/><path class="cls-2" d="M268.89,29a.53.53,0,0,0,0-.39c0-.07-.08-.12-.26-.14a7.48,7.48,0,0,0-1.05-.11.69.69,0,0,1-.69-.43,1.57,1.57,0,0,1,0-.91c.14-.48.26-1,.35-1.44a1,1,0,0,0-.19-.86.39.39,0,0,0-.48-.12.94.94,0,0,0-.35.2c-2.44-.62-5.92,2.25-6.51,3.84s-.09,2-.09,2c1.27,1.5,3.73.23,5.41-1.4,1,1,2.27.61,3.44,0a1.3,1.3,0,0,0,.34-.32ZM265,27a3.88,3.88,0,0,0-.27.94c-1,.6-2.37,1.56-2.7,1.17s1.17-2.36,3.2-2.8a4.45,4.45,0,0,0-.24.7ZM234.24,46.3a7.67,7.67,0,0,0,1.5.23c-.17.7-.33,1.46-.5,2.44-.17.7-.13,2.65.63,2.8a1.46,1.46,0,0,0,1.69-1c.46-1.53.7-3.09,1.06-4.64l.7-.26c1.05-.4,2-.82,2.85-1.24a6.47,6.47,0,0,0-.25,2.8c.1.52.08,1,.77,1a1.41,1.41,0,0,0,1.29-1,7.15,7.15,0,0,0,.23-.79c.27-1.28.53-2.53.74-3.76.42-.28.82-.57,1.21-.87.14-.08.4-.35.33-.51a.28.28,0,0,0-.35-.15h0a10.44,10.44,0,0,1-1,.41,33.11,33.11,0,0,0,.44-3.85c0-.21.12-.7-.21-.83s-.5,0-.7.33l-.27.44a15.57,15.57,0,0,0-1.75,4.74c-1.14.33-2.32.63-3.44.93.25-.92.39-1.52.57-2.48s1-2.71.53-3.34a.26.26,0,0,0-.17-.12.53.53,0,0,0-.27.13c-1.4,1.29-2.21,3.49-2.92,5.26-.19.47-.36.89-.5,1.28-.76.15-1.5.27-2.24.48a.68.68,0,0,0-.6.64.84.84,0,0,0,.64.85Zm-3.61-14.25c-1.47,1.89-2.1,4.2-3,6.43a23.1,23.1,0,0,0-1.34,5.23,7.22,7.22,0,0,0-.1,2.62c.07.36.27.74.62.7a1.06,1.06,0,0,0,.78-.55c.06-.15.24-.38.29-.53.63-1.7,1-3,1.59-4.66.39-1.14,1-2.55,1.32-3.76.44-1.7,1.22-3.28,1.28-5.05,0-.39-.09-.83-.47-1s-.7.19-.92.5Z" transform="translate(-36.79 -7.74)"/><path class="cls-2" d="M229.74,32.17a6.81,6.81,0,0,1,4.39-.11,2.26,2.26,0,0,1,1.15.79,2.06,2.06,0,0,1,.09,2.19,6.2,6.2,0,0,1-4,3.07c-.55.2-.74.58-.45.7a2.15,2.15,0,0,0,1.18,0A7.23,7.23,0,0,0,236.2,37c1.62-1.4,2.52-3.55,1.49-5.51a4.47,4.47,0,0,0-3.88-2.3c-1.86,0-4.29.45-5,2.1a.84.84,0,0,0-.05.85c.19.35.65.22,1,.09ZM268,20.29a.62.62,0,0,0-.25-.3c-2.5-1.77-7.41-3.29-10.56-4.59l-.22-.39c-.37-1.35-2.71-4.47-3-4.37-3.92,1-6.47,1.83-10.32,3.16L243,14a.53.53,0,0,0-.41.31l-.13.27c-.7,1.68-1.91,3.07-2.51,4.82l-.09.11c-4.35,1.71-8,4.5-11.58,7.44l-.19.14a.6.6,0,0,0-.21.34l0,.16a.61.61,0,0,0,.4.7l.45.08C233.13,27,237.42,26,242,25c0,0,.23-.16.26-.19,1.4-1.08,3-1.62,3.59-1.28.22.12.26.37.15.7,1.22-.23,2.42-.44,3.64-.64,2.41-.39,4.78-.7,7.22-1s5-.46,7.62-.65a6.15,6.15,0,0,0,.85-.1c.53-.12,2.41-.38,2.72-1.23a.44.44,0,0,0,0-.34Z" transform="translate(-36.79 -7.74)"/><path class="cls-2" d="M242.64,14.73l.09-.17-.33.19.37-.05a90.44,90.44,0,0,0,10.56-3.08.51.51,0,1,0-.3-1c-3.45.85-6.82,1.92-10.19,3l-.54.16a.48.48,0,0,0-.35.25l-.11.22a39.93,39.93,0,0,0-2.1,4.25.16.16,0,0,0,.08.19.1.1,0,0,0,.13,0s1.73-2.69,2.69-4ZM255,10.37c.42,1.69.7,3.44,1.09,5.14l0,.21c0,.12,0,.31.61.59h0a20.38,20.38,0,0,0,2.84.81c3,.94,5.82,2,8.73,3a.51.51,0,0,0,.65-.27h0a.51.51,0,0,0-.28-.65,57,57,0,0,0-11.45-3.89h-.05c-.7-1.58-1.12-3.49-2.07-5a.09.09,0,0,0-.1-.05.1.1,0,0,0,0,.12ZM228.14,28.55C232.72,27.15,237.33,26,242,25a1.16,1.16,0,0,1,.21-.16c1.39-1.08,2.95-1.67,3.53-1.32.23.13.26.39.14.7l2.93-.53c2.38-.39,4.72-.7,7.14-1s5-.47,7.53-.65a2.84,2.84,0,0,0,.7-.16A1.15,1.15,0,0,0,265,20.7a1.24,1.24,0,0,0-1.17-.94,2.81,2.81,0,0,0-.58,0c-5,.59-9.89,1.21-14.77,2.17a136.18,136.18,0,0,0-18.44,4.71A79.73,79.73,0,0,1,239.67,20a.23.23,0,0,0,.1-.32.21.21,0,0,0-.28-.12h0a45.13,45.13,0,0,0-11.77,7.56l-.18.16a.64.64,0,0,0-.28.45v.06a.71.71,0,0,0,.43.74.72.72,0,0,0,.46.06Z" transform="translate(-36.79 -7.74)"/><path class="cls-2" d="M243.94,26.87A18.88,18.88,0,0,0,246,24a.39.39,0,0,0,0-.46c-.12-.13-.3-.08-.48,0-1.36.46-2.68.93-3.29,2.46a1.06,1.06,0,0,0,.34,1.26,1,1,0,0,0,1.3-.32Z" transform="translate(-36.79 -7.74)"/></svg>