<svg xmlns="http://www.w3.org/2000/svg" viewBox="0 0 274.96 283.46"><defs><style>.cls-1{fill:#fff;}.cls-2,.cls-3{fill:none;stroke:#2b2b2b;stroke-miterlimit:10;}.cls-2{stroke-width:7.75px;}.cls-3{stroke-linecap:round;stroke-width:5.46px;stroke-dasharray:0.27 13.48 0.27 13.48 0.27 13.48;}.cls-4{fill:#2cceac;}.cls-5{fill:#2b2b2b;}</style></defs><title>Website Icons 2018 V2</title><g id="Layer_1" data-name="Layer 1"><path class="cls-1" d="M216,222.17c-2.76.57-5.24,1.16-7.75,1.58a14.92,14.92,0,0,0-11.22,8.2c-1.15,2.17-2.19,4.4-3.31,6.59A9.75,9.75,0,0,1,183.17,244c-2-.29-4-.5-5.93-.9a15.85,15.85,0,0,0-15.39,4.83c-1.46,1.5-3,2.93-4.56,4.32a9.82,9.82,0,0,1-11.18,1.34c-2.34-1.22-4.63-2.55-7-3.78a14.82,14.82,0,0,0-13.63-.39,80.9,80.9,0,0,1-7.57,3.11,9.12,9.12,0,0,1-10.17-2.72c-1.86-2-3.57-4.13-5.42-6.13a14.9,14.9,0,0,0-12-4.94c-2.72.1-5.44.36-8.17.41a9.31,9.31,0,0,1-9.28-6.26c-.93-2.37-1.8-4.77-2.79-7.12a15.08,15.08,0,0,0-9.4-8.91c-2.59-.86-5.23-1.56-7.83-2.4A9.45,9.45,0,0,1,46,205.36c-.09-2.54-.13-5.08-.18-7.63a15,15,0,0,0-6.14-11.94c-1.86-1.46-3.8-2.83-5.69-4.24-4-3-5.31-7.05-3.72-11.8.72-2.16,1.47-4.31,2.19-6.47a15,15,0,0,0-1.82-14c-1.39-2-2.71-4.09-4-6.18a9.47,9.47,0,0,1,.53-11.2c1.66-2.17,3.46-4.23,5.11-6.4a15.11,15.11,0,0,0,2.81-12.64c-.52-2.59-1.2-5.14-1.8-7.71a9.28,9.28,0,0,1,3.82-10c2.33-1.58,4.79-3,7.18-4.45a15.07,15.07,0,0,0,7.25-11.31c.35-2.52.53-5.07.9-7.59a9.3,9.3,0,0,1,7.27-8.25c2.46-.65,5-1.14,7.48-1.56a14.8,14.8,0,0,0,11.07-8c1.22-2.24,2.31-4.55,3.48-6.81a9.64,9.64,0,0,1,10.58-5.46c2.34.32,4.68.7,7,1.05a15.21,15.21,0,0,0,13.3-4.09c1.86-1.74,3.68-3.52,5.57-5.23A9.85,9.85,0,0,1,129.17,32a27.13,27.13,0,0,1,3.6,2c7,4.93,14.05,4.72,21.3.67A18.12,18.12,0,0,1,157.84,33a9.19,9.19,0,0,1,9.53,2.45,27.5,27.5,0,0,1,3.26,3.66c4.67,6.61,11.06,8.75,18.85,7.56a20.77,20.77,0,0,1,4.35-.21,9.2,9.2,0,0,1,8.62,6c1,2.45,1.85,4.95,2.89,7.37a15.13,15.13,0,0,0,9.41,8.89c2.59.86,5.24,1.55,7.84,2.39a9.38,9.38,0,0,1,6.87,9.13c.08,2.54.11,5.08.18,7.63a15,15,0,0,0,6.15,11.93c2,1.57,4.1,3,6.12,4.59a9.76,9.76,0,0,1,3.4,11.21c-.77,2.33-1.6,4.65-2.38,7A14.9,14.9,0,0,0,244.51,136c1.42,2.22,2.91,4.39,4.32,6.62a9.41,9.41,0,0,1-.37,11c-1.52,2-3.16,4-4.77,6a15.47,15.47,0,0,0-3,14.35c.63,2.47,1.32,4.94,1.71,7.45a9,9,0,0,1-4,9.23c-2.23,1.56-4.59,2.93-6.93,4.32a15.06,15.06,0,0,0-7.52,11.71c-.29,2.35-.51,4.7-.82,7A9.57,9.57,0,0,1,216,222.17Z"/><circle class="cls-2" cx="137.85" cy="143.21" r="90.94" transform="translate(-36.25 47.29) rotate(-17.24)"/><circle class="cls-3" cx="138.44" cy="142.45" r="78.76" transform="matrix(0.96, -0.3, 0.3, 0.96, -36, 47.43)"/><path class="cls-4" d="M81.67,119.14A5.86,5.86,0,0,1,79,111a5.4,5.4,0,0,1,4.44-3.14l.08,2.32A3.28,3.28,0,0,0,81,111.94a3.8,3.8,0,0,0,6.79,3.37,3.9,3.9,0,0,0,.3-2.59l-1.24-.62-1.35,2.73-1.92-1L86,108.95l4,2a6.41,6.41,0,0,1-.23,5.38A5.88,5.88,0,0,1,81.67,119.14Z"/><path class="cls-4" d="M89.44,107l-5.34-4.43,1.59-1.92L91,105a2.71,2.71,0,1,0,3.46-4.17l-5.27-4.38,1.6-1.93L96.09,99c2.21,1.83,2.63,4.39.39,7.09S91.63,108.8,89.44,107Z"/><path class="cls-4" d="M107.39,95.69l-1.76-1.11-3.91,3,.62,2-2.22,1.72L96.57,89.47,99,87.58,109.6,94ZM99.3,90.46l1.62,5,2.84-2.21Z"/><path class="cls-4" d="M116.77,90.59,113,87.86l-1.62.77,1.76,3.71-2.22,1.06-5-10.43,4.88-2.32a3.6,3.6,0,0,1,5.1,1.7,3.31,3.31,0,0,1-.81,4.18l4.23,2.86Zm-3.14-7.17a1.57,1.57,0,0,0-2.23-.66l-2.33,1.11,1.34,2.82,2.33-1.11A1.57,1.57,0,0,0,113.63,83.42Z"/><path class="cls-4" d="M129,86.88l-1.14-1.74-4.82,1.14-.26,2.07-2.73.64,1.7-12.27,3-.71,7,10.22Zm-5.19-8.12L123.24,84l3.51-.83Z"/><path class="cls-4" d="M141.1,86.13l-5.54-7.51,0,7.53h-2.46l0-11.55h2.53L141,81.83l0-7.26h2.46l0,11.55Z"/><path class="cls-4" d="M148.63,87.07l1.95-9.18-3.3-.7.45-2.12,9,1.91-.45,2.12-3.29-.7-1.95,9.18Z"/><path class="cls-4" d="M156.15,88.92l4.48-10.65,7.54,3.17-.84,2-5.27-2.22-.95,2.25,5.16,2.17-.84,2-5.16-2.17-1,2.41,5.27,2.22-.84,2Z"/><path class="cls-4" d="M165.69,93.2l6.41-9.61,6.8,4.53-1.2,1.8-4.75-3.17-1.35,2,4.65,3.1-1.2,1.8-4.65-3.1-1.45,2.18,4.75,3.17-1.2,1.8Z"/><path class="cls-4" d="M97.51,187.18A5.86,5.86,0,0,1,106,186a5.4,5.4,0,0,1,2.36,4.89l-2.31-.3a3.27,3.27,0,0,0-1.33-2.83,3.8,3.8,0,0,0-4.45,6.14,3.9,3.9,0,0,0,2.51.73l.81-1.12-2.47-1.79,1.26-1.74,4.46,3.23-2.6,3.59A6.41,6.41,0,0,1,99,195.64,5.88,5.88,0,0,1,97.51,187.18Z"/><path class="cls-4" d="M108.78,196.29l2.72-6.39,2.29,1-2.69,6.31a2.71,2.71,0,1,0,5,2.13l2.69-6.31,2.31,1-2.72,6.37c-1.13,2.64-3.46,3.78-6.69,2.4S107.67,198.9,108.78,196.29Z"/><path class="cls-4" d="M128.32,207.3l-.32-2.06-4.86-.95L122,206.08l-2.75-.54,6.59-10.48,3,.59,2.16,12.18Zm-1.39-9.53-2.72,4.53,3.53.69Z"/><path class="cls-4" d="M141,207.87l-2.33-4.07-1.8,0,.07,4.11-2.46,0-.19-11.55,5.4-.09a3.6,3.6,0,0,1,3.94,3.66,3.32,3.32,0,0,1-2.47,3.47l2.67,4.36Zm.12-7.83a1.57,1.57,0,0,0-1.76-1.53l-2.58,0,.05,3.12,2.58,0A1.57,1.57,0,0,0,141.16,200Z"/><path class="cls-4" d="M155.78,205.52l-1.13-1.75-4.83,1.1-.27,2.07-2.73.62,1.78-12.25,3-.69,6.91,10.26Zm-5.13-8.15-.65,5.24,3.51-.8Z"/><path class="cls-4" d="M169,200.25l-8.2-4.45,3.22,6.81-2.22,1.05-4.94-10.44,2.29-1.08,7.94,4.27-3.1-6.56,2.22-1.05,4.94,10.44Z"/><path class="cls-4" d="M177.18,195.11l-5.67-7.48-2.69,2-1.31-1.72,7.34-5.56,1.31,1.73-2.68,2,5.67,7.48Z"/><path class="cls-4" d="M184.57,189,176,181.22l5.49-6.05,1.6,1.45-3.84,4.23,1.81,1.64,3.76-4.14,1.6,1.45-3.76,4.14,1.94,1.76,3.84-4.23,1.6,1.45Z"/><path class="cls-4" d="M192.52,179.61l-9.83-6.07,4.3-7,1.84,1.14-3,4.86,2.08,1.28,2.94-4.76,1.84,1.14L189.75,175l2.23,1.38,3-4.86,1.84,1.14Z"/><path class="cls-5" d="M98.21,140.18l-.87-4.75-.2.06-.32,4.13-2.36,10.1-1.46.43L85.24,143l-2.55-3.24-.17,0,2,4.37,3.59,12-4.3,1.28-6.9-23.15,4.13-1.23,9.34,8.74,1.88,2.32.13,0,.18-3,2.72-12.26,4.1-1.22,6.9,23.15-4.53,1.35Z"/><path class="cls-5" d="M107.77,137.8q-1.72-5.79-.11-9.67a9.23,9.23,0,0,1,6.35-5.29,10.64,10.64,0,0,1,4.59-.43,8.52,8.52,0,0,1,3.81,1.53,11.17,11.17,0,0,1,3,3.26,19.81,19.81,0,0,1,2.06,4.75q1.72,5.79.09,9.68a9.24,9.24,0,0,1-6.33,5.29,10.73,10.73,0,0,1-4.62.44,8.37,8.37,0,0,1-3.79-1.54,11.33,11.33,0,0,1-2.94-3.27A19.81,19.81,0,0,1,107.77,137.8Zm4.76-1.42a17,17,0,0,0,1.26,3.14,8.68,8.68,0,0,0,1.66,2.26,4.82,4.82,0,0,0,2.06,1.19,4.42,4.42,0,0,0,2.46-.08,4.49,4.49,0,0,0,3.18-3q.76-2.28-.5-6.51a17.32,17.32,0,0,0-1.22-3.06A9.15,9.15,0,0,0,119.8,128a4.77,4.77,0,0,0-2.06-1.24,4.86,4.86,0,0,0-5.69,3.14Q111.3,132.25,112.53,136.39Z"/><path class="cls-5" d="M137.92,128.28l-2.9-3.1-.17,0,1.61,3.48,3.6,12.07-4.3,1.28-6.95-23.32,3.31-1,12.44,9.73,2.81,3,.17,0L146,127.08l-3.63-12.17,4.3-1.28,6.95,23.32-3.31,1Z"/><path class="cls-5" d="M152.25,112,166,107.87l1.2,4-9.2,2.74,1.61,5.39,8.37-2.49,1.2,4-8.37,2.49,1.68,5.66,9.36-2.79,1.2,4-13.89,4.14Z"/><path class="cls-5" d="M181.06,119.22l-11.94-12.29,5.39-1.61,6.82,7.44,1.1-.4,1.53-9.85,4.86-1.45-3.25,16.78,2.57,8.63-4.53,1.35Z"/><path class="cls-5" d="M118.28,158.82a7.39,7.39,0,0,1,.3,1.78,4.93,4.93,0,0,1-.24,1.78,5.22,5.22,0,0,1-.92,1.64,5.88,5.88,0,0,1-1.68,1.38l.06.2a8.12,8.12,0,0,1,2.05,0,5.05,5.05,0,0,1,1.88.63,5.24,5.24,0,0,1,1.54,1.38,6.85,6.85,0,0,1,1.08,2.24,6.3,6.3,0,0,1,.16,3.32,6.55,6.55,0,0,1-1.4,2.74,9.76,9.76,0,0,1-2.53,2.09,14.61,14.61,0,0,1-3.22,1.39l-1.44.43q-.88.26-1.9.51t-2.09.46a15.31,15.31,0,0,1-2,.27l-6.8-22.82,1.38-.63q.78-.34,1.69-.68t1.87-.67q1-.32,1.92-.61a20.67,20.67,0,0,1,3.23-.69,9.42,9.42,0,0,1,3,.06,5.25,5.25,0,0,1,2.46,1.18A5.37,5.37,0,0,1,118.28,158.82Zm-8.47,7.24q.46-.14,1.07-.35a10,10,0,0,0,1-.4,6.26,6.26,0,0,0,1.82-1.82,2.71,2.71,0,0,0,.3-2.33,2.84,2.84,0,0,0-.75-1.31,2.61,2.61,0,0,0-1.14-.62,3.9,3.9,0,0,0-1.38-.09,8.18,8.18,0,0,0-1.49.3q-.86.26-1.58.51a10.66,10.66,0,0,0-1.1.43l1.82,6.12Zm4.45,9.51a6.79,6.79,0,0,0,1.55-.67,4.41,4.41,0,0,0,1.19-1,3.33,3.33,0,0,0,.65-1.32,3,3,0,0,0-.08-1.58,3.08,3.08,0,0,0-.94-1.57,3,3,0,0,0-1.41-.63,4.87,4.87,0,0,0-1.69,0,15.9,15.9,0,0,0-1.75.41l-2.41.72,1.88,6.32a2.13,2.13,0,0,0,.56-.06l.79-.18.87-.22Z"/><path class="cls-5" d="M139.08,166.38,132,168.5l-.23,5.65-4.53,1.35,1.39-25.8,3.34-1,15.28,20.84L142.45,171Zm-7-1.87,5-1.48-3.26-4.65-1.32-1.14-.22,1.63Z"/><path class="cls-5" d="M165.23,163.15a7.25,7.25,0,0,1-2.37,1.89,17.8,17.8,0,0,1-3.26,1.33,12.55,12.55,0,0,1-4.14.53,8.82,8.82,0,0,1-3.91-1.1,10.69,10.69,0,0,1-3.38-3.06,17,17,0,0,1-2.5-5.32,15.75,15.75,0,0,1-.76-6,10.8,10.8,0,0,1,1.34-4.43,9.43,9.43,0,0,1,2.76-3,12.26,12.26,0,0,1,3.52-1.72,18.89,18.89,0,0,1,3.44-.74,12.86,12.86,0,0,1,2.45,0l.25,4.1a6.87,6.87,0,0,0-2,0,17.2,17.2,0,0,0-2.58.59,5.76,5.76,0,0,0-3.83,3.27q-1.09,2.45.14,6.56a13.09,13.09,0,0,0,1.37,3.15,7.33,7.33,0,0,0,2,2.16,5.81,5.81,0,0,0,2.5,1,6.66,6.66,0,0,0,3-.25,9.52,9.52,0,0,0,2.43-1,7.7,7.7,0,0,0,1.56-1.29Z"/><path class="cls-5" d="M172.75,151.17l-1.19.35,2.95,9.89L170,162.76l-6.9-23.15,4.53-1.35,3.05,10.25.92-.78L175.05,136l5.16-1.54-3.85,11.73.82,2.53,10.95,8.59L182.54,159Z"/></g></svg>