<?xml version="1.0" encoding="UTF-8"?>
<svg width="25px" height="21px" viewBox="0 0 25 21" version="1.1" xmlns="http://www.w3.org/2000/svg" xmlns:xlink="http://www.w3.org/1999/xlink">
    <!-- Generator: sketchtool 51.3 (57544) - http://www.bohemiancoding.com/sketch -->
    <title>8CFF5BB1-4910-45F5-B5D6-2E2AD337D598</title>
    <desc>Created with sketchtool.</desc>
    <defs></defs>
    <g id="Screens" stroke="none" stroke-width="1" fill="none" fill-rule="evenodd">
        <g id="Course-03" transform="translate(-360.000000, -1082.000000)">
            <g id="Group-16" transform="translate(280.000000, 984.000000)">
                <g id="Group-8">
                    <g id="Features" transform="translate(41.000000, 98.000000)">
                        <g id="Icons/Bike" transform="translate(39.000000, 0.000000)">
                            <rect id="Background" x="0" y="0" width="26" height="22"></rect>
                            <circle id="Oval-3" stroke="#111111" cx="21" cy="17" r="3.5"></circle>
                            <path d="M7,20.5 C5.06700338,20.5 3.5,18.9329966 3.5,17 L3.5,16.5 L4,16.5 C6.4258607,16.5 6.4258607,16.5 8.56596311,16.5 C9.32739601,16.5 9.32739601,16.5 10,16.5 L10.5,16.5 L10.5,17 C10.5,18.9329966 8.93299662,20.5 7,20.5 Z" id="Oval-3" stroke="#111111"></path>
                            <path d="M1,16.5 L16.6666667,16.5" id="Line" stroke="#111111" stroke-linecap="square"></path>
                            <rect id="Rectangle-6" stroke="#111111" x="2" y="8" width="10" height="2" rx="1"></rect>
                            <polyline id="Path-3" stroke="#111111" stroke-linecap="round" stroke-linejoin="round" points="12 1 14.7692308 1 21 17"></polyline>
                            <path d="M1.00137208,17 C0.953520514,14.2407782 2.15729656,11.9074448 4.6127002,10" id="Path-5" stroke="#111111"></path>
                            <path d="M9.00137208,17 C8.95352051,14.2407782 10.1572966,11.9074448 12.6127002,10" id="Path-5" stroke="#111111" transform="translate(10.806350, 13.500000) scale(-1, 1) translate(-10.806350, -13.500000) "></path>
                            <path d="M12.0017519,13 C11.9406549,10.2407782 13.4776377,7.90744484 16.6127002,6" id="Path-5" stroke="#111111" transform="translate(14.306350, 9.500000) scale(-1, -1) translate(-14.306350, -9.500000) "></path>
                            <rect id="Rectangle-7" stroke="#111111" fill="#FFFFFF" x="14.5" y="3.5" width="4" height="3" rx="1.5"></rect>
                        </g>
                    </g>
                </g>
            </g>
        </g>
    </g>
</svg>