<svg id="Layer_1" xmlns="http://www.w3.org/2000/svg" viewBox="0 0 23 23" width="25" height="25"><style>.st0{fill:none;stroke:#141414;stroke-width:.951;stroke-linecap:round;stroke-linejoin:round}</style><path class="st0" d="M3.8 8.3c0-.1 0-.1 0 0-.3-.6-1-.8-1.5-.5-.5.2-.7.9-.5 1.4l5.8 12.6M7.8 11.7L5.5 6.5v-.1c-.3-.5-1-.7-1.5-.4-.5.3-.7.9-.5 1.4L6 13"/><path class="st0" d="M10 11.2L7.6 5.8v-.1c-.3-.5-1-.7-1.5-.4-.5.3-.7.9-.5 1.4l2.2 5"/><path class="st0" d="M7.6 21.8s5.9 1.5 8.3-3.4c-.7-1.5-6.1-13-6.1-13v-.1c-.3-.5-1-.7-1.5-.4-.6.2-.7.8-.5 1.4l2.2 4.9M14.6 2.5c0-.1 0-.1 0 0 .2-.7-.2-1.3-.8-1.4-.6-.1-1.1.2-1.3.7L10.6 7"/><path class="st0" d="M16.9 2.5s0-.1 0 0c.2-.7-.2-1.3-.8-1.4-.6-.1-1.1.2-1.3.7l-1.9 5.4"/><path class="st0" d="M18.6 4.3l.3-.8s0-.2.1-.2c0-.6-.3-1.2-.9-1.3-.6-.1-1.1.2-1.3.7l-2 5.5"/><path class="st0" d="M15.9 18.4L20.7 5v-.1c.1-.6-.2-1.2-.8-1.3-.6-.1-1.1.2-1.3.7L17 8.8M15.3 17.1l.6-6.2v-.1c0-.6-.5-1.1-1.1-1.1-.6 0-1 .4-1.1 1l-.3 2.4"/></svg>
