<?xml version="1.0" encoding="UTF-8"?>
<svg width="23px" height="23px" viewBox="0 0 23 23" version="1.1" xmlns="http://www.w3.org/2000/svg" xmlns:xlink="http://www.w3.org/1999/xlink">
    <!-- Generator: sketchtool 51.3 (57544) - http://www.bohemiancoding.com/sketch -->
    <title>E51B59FE-8D3E-4027-A731-61526419AFE4</title>
    <desc>Created with sketchtool.</desc>
    <defs></defs>
    <g id="Screens" stroke="none" stroke-width="1" fill="none" fill-rule="evenodd">
        <g id="Course-03" transform="translate(-321.000000, -1082.000000)">
            <g id="Group-16" transform="translate(280.000000, 984.000000)">
                <g id="Group-8">
                    <g id="Features" transform="translate(41.000000, 98.000000)">
                        <g id="Icons/Helmet">
                            <rect id="Background" x="0" y="0" width="23" height="23"></rect>
                            <path d="M0.5,17.5 L11.0584717,17.5 C11.9193726,17.5 12.6835938,16.9490967 12.9558716,16.1324463 L14.6224976,11.1324463 C15.0541992,9.8374023 14.090271,8.5 12.7251587,8.5 L0.9135742,8.5" id="Shape" stroke="#141414"></path>
                            <path d="M11.293952,0.5018965 C5.2383437,0.6126871 0.4999978,5.4433789 0.5,11.5 L0.5,17.5 C0.500001,20.2614231 2.7385752,22.5 5.4999981,22.5 L14.5,22.5 C18.9182777,22.5 22.5,18.9182777 22.5,14.5 L22.5,11.5 C22.5,5.3563271 17.4633846,0.3890234 11.293952,0.5018965 Z" id="Shape" stroke="#141414" stroke-linecap="square"></path>
                        </g>
                    </g>
                </g>
            </g>
        </g>
    </g>
</svg>