<svg xmlns="http://www.w3.org/2000/svg" width="35" height="26" viewBox="0 0 35 26">
  <g fill="none">
    <rect width="35" height="26" fill="#007AC6" rx="6"/>
    <path fill="#FFF" d="M7.18428986,13.3280588 L8.94023188,13.3280588 L8.06226087,11.1432941 L7.18428986,13.3280588 Z M31.6521739,9.17647059 L27.1537971,9.17647059 L26.0565217,10.3778235 L25.0685217,9.17647059 L15.5231304,9.17647059 L14.6451594,11.1425294 L13.7671884,9.17647059 L9.92672464,9.17647059 L9.92672464,10.0505294 L9.48811594,9.17647059 L6.19628986,9.17647059 L3.01449275,16.8235294 L6.85495652,16.8235294 L7.29356522,15.6221765 L8.39084058,15.6221765 L8.82944928,16.8235294 L13.1085217,16.8235294 L13.1085217,15.9494706 L13.4378551,16.8235294 L15.6324058,16.8235294 L15.9617391,15.8401176 L15.9617391,16.8235294 L24.739942,16.8235294 L25.8372174,15.6221765 L26.8244638,16.8235294 L31.3228406,16.8235294 L28.4703768,13 L31.6521739,9.17647059 Z M18.3755942,15.7307647 L17.1682899,15.7307647 L17.1682899,11.4705882 L15.3030725,15.7307647 L14.2057971,15.7307647 L12.3405797,11.4705882 L12.3405797,15.7307647 L9.81669565,15.7307647 L9.37808696,14.5294118 L6.74492754,14.5294118 L6.30631884,15.7307647 L4.87971014,15.7307647 L7.18353623,10.2684706 L9.04875362,10.2684706 L11.1332754,15.4027059 L11.1332754,10.2684706 L13.2177971,10.2684706 L14.8637101,13.9826471 L16.3995942,10.2684706 L18.4841159,10.2684706 L18.4841159,15.7307647 L18.3755942,15.7307647 L18.3755942,15.7307647 Z M29.2383188,15.7307647 L27.5924058,15.7307647 L26.1657971,13.8732941 L24.5198841,15.7307647 L19.5821449,15.7307647 L19.5821449,10.2684706 L24.6291594,10.2684706 L26.1650435,12.0165882 L27.8109565,10.2684706 L29.3468406,10.2684706 L26.9337391,13 L29.2383188,15.7307647 Z M20.7894493,11.3612353 L20.7894493,12.3446471 L23.5326377,12.3446471 L23.5326377,13.4374118 L20.7894493,13.4374118 L20.7894493,14.5294118 L23.861971,14.5294118 L25.2885797,12.8906471 L23.972,11.3612353 L20.7894493,11.3612353 Z"/>
  </g>
</svg>
