<svg xmlns="http://www.w3.org/2000/svg" width="35" height="26" viewBox="0 0 35 26">
  <g fill="none">
    <rect width="35" height="26" fill="#1A1876" rx="6"/>
    <polygon fill="#FFF" points="13.745 16.671 15.711 16.671 16.941 9.348 14.974 9.348"/>
    <path fill="#FFF" d="M20.9077681 12.2880588C20.2204638 11.9492941 19.7991884 11.7229412 19.8037101 11.3803529 19.8037101 11.0744706 20.1601739 10.7502353 20.9341449 10.7502353 21.5044326 10.7357545 22.0697677 10.8608713 22.5823188 11.115L22.8491014 9.52823529C22.2837201 9.32128524 21.6866483 9.21772075 21.0856232 9.22235294 19.142029 9.22235294 17.7696812 10.2164706 17.7613913 11.6388235 17.7508406 12.6910588 18.7411014 13.2783529 19.4849275 13.6270588 20.2506087 13.9857059 20.5083478 14.2143529 20.5045797 14.5347647 20.4993043 15.0257059 19.8933913 15.2505294 19.3274203 15.2505294 18.5952397 15.2678782 17.8707927 15.0954862 17.2225507 14.7496471L16.9467246 16.3884118C17.6478729 16.651335 18.3900259 16.7837111 19.1375072 16.7791765 21.2054493 16.7791765 22.5476522 15.7972941 22.5627246 14.2778235 22.5664928 13.4442941 22.0427246 12.8103529 20.9077681 12.2880588zM27.8893333 9.35464706L26.3692754 9.35464706C25.9301158 9.29758361 25.5078166 9.54647646 25.3390725 9.96182353L22.418029 16.6705882 24.4837101 16.6705882C24.4837101 16.6705882 24.8213333 15.7682353 24.8974493 15.5701765L27.4168116 15.5701765C27.4755942 15.8271176 27.6564638 16.6675294 27.6564638 16.6675294L29.4817391 16.6675294 27.8893333 9.35464706zM25.4641739 14.0751765C25.5455652 13.8633529 26.3481739 11.7718824 26.5086957 11.3291176 26.773971 12.5908824 26.5154783 11.3665882 27.0965217 14.0751765L25.4641739 14.0751765zM12.0948986 9.35311765L10.1686377 14.3466471 9.96365217 13.3318824 9.27408696 9.96717647C9.17016868 9.56413144 8.78960671 9.30027823 8.3817971 9.34852941L5.2097971 9.34852941 5.18492754 9.50147059C5.90613942 9.67413728 6.60118348 9.94446326 7.25136232 10.3051765L8.99976812 16.6652353 11.0812754 16.6652353 14.177913 9.35617647 12.0948986 9.35311765z"/>
  </g>
</svg>
