<svg width="39" height="37" viewBox="0 0 39 37" fill="none" xmlns="http://www.w3.org/2000/svg">
<path d="M31.0833 7.58325H34.4167C35.3007 7.58325 36.1486 7.93444 36.7737 8.55956C37.3988 9.18468 37.75 10.0325 37.75 10.9166V25.0833C37.75 25.9673 37.3988 26.8152 36.7737 27.4403C36.1486 28.0654 35.3007 28.4166 34.4167 28.4166H31.0833V35.0833L21.0833 28.4166H17.75" stroke="#FFFFFF" stroke-miterlimit="10" stroke-linecap="square"/>
<path d="M27.7499 0.916626H4.41658C3.53253 0.916626 2.68468 1.26782 2.05956 1.89294C1.43444 2.51806 1.08325 3.3659 1.08325 4.24996V18.4166C1.08325 19.3007 1.43444 20.1485 2.05956 20.7736C2.68468 21.3988 3.53253 21.75 4.41658 21.75H7.74992V30.0833L19.4166 21.75H27.7499C28.634 21.75 29.4818 21.3988 30.1069 20.7736C30.7321 20.1485 31.0832 19.3007 31.0832 18.4166V4.24996C31.0832 3.3659 30.7321 2.51806 30.1069 1.89294C29.4818 1.26782 28.634 0.916626 27.7499 0.916626Z" stroke="#FFFFFF" stroke-miterlimit="10" stroke-linecap="square"/>
</svg>
