<svg id="Layer_1" data-name="Layer 1" xmlns="http://www.w3.org/2000/svg" viewBox="0 0 162 113"><defs><style>.cls-1{fill:#fff;}</style></defs><title>envelope</title><path class="cls-1" d="M85.67,72c7.33-7.71,55.81-58.91,58.21-61.44H19.36c.35.4,51.25,54.18,58.12,61.42C80,74.61,83.17,74.61,85.67,72Z"/><path class="cls-1" d="M111.76,53.37l-7.32,7.72h0l-.62.66-.76.8h0c-4.31,4.55-8.6,9.12-12.94,13.65-5,5.19-12.08,5.17-17.07,0-2.2-2.28-4.36-4.59-6.53-6.89L62,64.54h0L54.19,56.3h0l-2.73-2.87-.06-.07h0L12.14,11.91v90.16H151.06V11.88Z"/></svg>