<svg xmlns="http://www.w3.org/2000/svg" xmlns:xlink="http://www.w3.org/1999/xlink" viewBox="0 0 274.96 283.46"><defs><style>.cls-1{fill:none;}.cls-2{fill:#fff;}.cls-3{fill:#2b2b2b;}.cls-4{clip-path:url(#clip-path);}.cls-5{fill:#2cceac;}</style><clipPath id="clip-path"><circle class="cls-1" cx="139.91" cy="143.23" r="77.76"/></clipPath></defs><title>Website Icons 2018 V2</title><g id="Layer_1" data-name="Layer 1"><path class="cls-2" d="M232.26,143.23A92.26,92.26,0,1,1,167.37,55,92.36,92.36,0,0,1,232.26,143.23Z"/><path class="cls-3" d="M236,117.74a100.67,100.67,0,0,0-69.59-71.64,8.64,8.64,0,0,0-4.76,16.6A83.16,83.16,0,1,1,80.4,83.38l18.9,18.9V51.72H48.73L68.18,71.17A100.36,100.36,0,1,0,236,117.74Z"/><g class="cls-4"><rect class="cls-5" x="69.54" y="90.83" width="4.47" height="26.72" transform="translate(-54.19 115.96) rotate(-60.78)"/><rect class="cls-5" x="57.97" y="180.15" width="26.72" height="4.47" transform="translate(-83.28 62.18) rotate(-30.78)"/><rect class="cls-5" x="86.43" y="208.94" width="26.72" height="4.47" transform="translate(-133.23 195.19) rotate(-60.78)"/><rect class="cls-5" x="175.75" y="198.27" width="4.47" height="26.72" transform="translate(-83.22 120.87) rotate(-30.78)"/><rect class="cls-5" x="204.54" y="169.81" width="4.47" height="26.72" transform="translate(-54.03 274.19) rotate(-60.77)"/><rect class="cls-5" x="193.87" y="102.73" width="26.72" height="4.47" transform="translate(-24.52 120.82) rotate(-30.78)"/><rect class="cls-5" x="165.41" y="73.94" width="26.72" height="4.47" transform="translate(25 194.98) rotate(-60.77)"/><rect class="cls-5" x="137.49" y="52.11" width="4.47" height="26.72" transform="translate(-0.87 1.9) rotate(-0.78)"/><rect class="cls-5" x="137.49" y="207.76" width="4.47" height="26.72" transform="translate(-2.98 1.91) rotate(-0.78)"/><rect class="cls-5" x="48.79" y="140.99" width="26.72" height="4.47" transform="matrix(1, -0.01, 0.01, 1, -1.94, 0.86)"/><rect class="cls-5" x="204.16" y="140.99" width="26.72" height="4.47" transform="matrix(1, -0.01, 0.01, 1, -1.92, 2.96)"/></g><path class="cls-3" d="M105.86,149.8a6.57,6.57,0,0,1,0-13.14l27.37-.09V95.29a6.57,6.57,0,1,1,13.14,0v54.38l-40.46.13Z"/></g></svg>